STARTFONT 2.1
FONT -Apple-Chicago-Medium-R-Normal--12-120-75-75-P-78-ISO10646-1
SIZE 12 75 75
FONTBOUNDINGBOX 13 15 0 -3
COMMENT "Generated by fontforge, http://fontforge.sourceforge.net"
COMMENT "Created by Fondu from a mac NFNT/FONT resource"
COMMENT "bdf by Alexey Dokuchaev https://github.com/danfe/fonts"
STARTPROPERTIES 19
FOUNDRY "Apple"
FAMILY_NAME "Chicago"
WEIGHT_NAME "Medium"
SLANT "R"
SETWIDTH_NAME "Normal"
ADD_STYLE_NAME ""
PIXEL_SIZE 12
POINT_SIZE 120
RESOLUTION_X 75
RESOLUTION_Y 75
SPACING "P"
AVERAGE_WIDTH 78
CHARSET_REGISTRY "ISO10646"
CHARSET_ENCODING "1"
FONT_ASCENT 9
FONT_DESCENT 3
FACE_NAME "Chicago"
CAP_HEIGHT 9
X_HEIGHT 7
ENDPROPERTIES
CHARS 211
STARTCHAR char0010
ENCODING 16
SWIDTH 916 0
DWIDTH 11 0
BBX 9 11 1 0
BITMAP
0600
0C00
0800
7700
8180
8200
8200
8180
8080
4900
3600
ENDCHAR
STARTCHAR char0011
ENCODING 17
SWIDTH 916 0
DWIDTH 11 0
BBX 9 9 1 0
BITMAP
6300
9480
9480
7F00
1400
7F00
9480
9480
6300
ENDCHAR
STARTCHAR char0012
ENCODING 18
SWIDTH 916 0
DWIDTH 11 0
BBX 9 8 1 0
BITMAP
0080
0180
0300
0600
8C00
D800
7000
2000
ENDCHAR
STARTCHAR char0013
ENCODING 19
SWIDTH 750 0
DWIDTH 9 0
BBX 7 7 1 1
BITMAP
10
38
7C
FE
7C
38
10
ENDCHAR
STARTCHAR char0014
ENCODING 20
SWIDTH 916 0
DWIDTH 11 0
BBX 9 11 1 0
BITMAP
0600
0C00
0800
7700
FF80
FE00
FE00
FF80
FF80
7F00
3600
ENDCHAR
STARTCHAR space
ENCODING 32
SWIDTH 333 0
DWIDTH 4 0
BBX 0 0 4 -3
BITMAP
ENDCHAR
STARTCHAR exclam
ENCODING 33
SWIDTH 500 0
DWIDTH 6 0
BBX 2 9 2 0
BITMAP
C0
C0
C0
C0
C0
C0
00
C0
C0
ENDCHAR
STARTCHAR quotedbl
ENCODING 34
SWIDTH 583 0
DWIDTH 7 0
BBX 3 3 2 6
BITMAP
A0
A0
A0
ENDCHAR
STARTCHAR numbersign
ENCODING 35
SWIDTH 833 0
DWIDTH 10 0
BBX 8 8 1 2
BITMAP
12
12
7F
24
24
FE
48
48
ENDCHAR
STARTCHAR dollar
ENCODING 36
SWIDTH 583 0
DWIDTH 7 0
BBX 5 11 1 -1
BITMAP
20
70
A8
E0
E0
70
38
38
A8
70
20
ENDCHAR
STARTCHAR percent
ENCODING 37
SWIDTH 916 0
DWIDTH 11 0
BBX 9 10 1 0
BITMAP
6E00
9200
9400
6400
0800
0800
1300
1480
2480
2300
ENDCHAR
STARTCHAR ampersand
ENCODING 38
SWIDTH 833 0
DWIDTH 10 0
BBX 8 9 1 0
BITMAP
78
CC
CD
61
CE
CC
CC
CC
78
ENDCHAR
STARTCHAR quotesingle
ENCODING 39
SWIDTH 250 0
DWIDTH 3 0
BBX 1 3 1 6
BITMAP
80
80
80
ENDCHAR
STARTCHAR parenleft
ENCODING 40
SWIDTH 416 0
DWIDTH 5 0
BBX 3 11 1 -1
BITMAP
20
40
C0
C0
C0
C0
C0
C0
C0
40
20
ENDCHAR
STARTCHAR parenright
ENCODING 41
SWIDTH 416 0
DWIDTH 5 0
BBX 3 11 1 -1
BITMAP
80
40
60
60
60
60
60
60
60
40
80
ENDCHAR
STARTCHAR asterisk
ENCODING 42
SWIDTH 583 0
DWIDTH 7 0
BBX 5 5 1 4
BITMAP
20
A8
70
A8
20
ENDCHAR
STARTCHAR plus
ENCODING 43
SWIDTH 583 0
DWIDTH 7 0
BBX 5 5 1 2
BITMAP
20
20
F8
20
20
ENDCHAR
STARTCHAR comma
ENCODING 44
SWIDTH 333 0
DWIDTH 4 0
BBX 2 4 1 -2
BITMAP
C0
C0
40
80
ENDCHAR
STARTCHAR hyphen
ENCODING 45
SWIDTH 583 0
DWIDTH 7 0
BBX 5 1 1 4
BITMAP
F8
ENDCHAR
STARTCHAR period
ENCODING 46
SWIDTH 333 0
DWIDTH 4 0
BBX 2 2 1 0
BITMAP
C0
C0
ENDCHAR
STARTCHAR slash
ENCODING 47
SWIDTH 583 0
DWIDTH 7 0
BBX 5 10 1 0
BITMAP
08
08
10
10
20
20
40
40
80
80
ENDCHAR
STARTCHAR zero
ENCODING 48
SWIDTH 666 0
DWIDTH 8 0
BBX 6 9 1 0
BITMAP
78
CC
CC
CC
CC
CC
CC
CC
78
ENDCHAR
STARTCHAR one
ENCODING 49
SWIDTH 666 0
DWIDTH 8 0
BBX 3 9 2 0
BITMAP
60
E0
60
60
60
60
60
60
60
ENDCHAR
STARTCHAR two
ENCODING 50
SWIDTH 666 0
DWIDTH 8 0
BBX 6 9 1 0
BITMAP
78
8C
0C
0C
18
30
60
C0
FC
ENDCHAR
STARTCHAR three
ENCODING 51
SWIDTH 666 0
DWIDTH 8 0
BBX 6 9 1 0
BITMAP
FC
18
30
78
0C
0C
0C
8C
78
ENDCHAR
STARTCHAR four
ENCODING 52
SWIDTH 666 0
DWIDTH 8 0
BBX 7 9 1 0
BITMAP
0C
1C
2C
4C
8C
FE
0C
0C
0C
ENDCHAR
STARTCHAR five
ENCODING 53
SWIDTH 666 0
DWIDTH 8 0
BBX 6 9 1 0
BITMAP
FC
C0
C0
F8
0C
0C
0C
8C
78
ENDCHAR
STARTCHAR six
ENCODING 54
SWIDTH 666 0
DWIDTH 8 0
BBX 6 9 1 0
BITMAP
38
60
C0
F8
CC
CC
CC
CC
78
ENDCHAR
STARTCHAR seven
ENCODING 55
SWIDTH 666 0
DWIDTH 8 0
BBX 6 9 1 0
BITMAP
FC
0C
0C
0C
18
30
30
30
30
ENDCHAR
STARTCHAR eight
ENCODING 56
SWIDTH 666 0
DWIDTH 8 0
BBX 6 9 1 0
BITMAP
78
CC
CC
CC
78
CC
CC
CC
78
ENDCHAR
STARTCHAR nine
ENCODING 57
SWIDTH 666 0
DWIDTH 8 0
BBX 6 9 1 0
BITMAP
78
CC
CC
CC
CC
7C
0C
18
70
ENDCHAR
STARTCHAR colon
ENCODING 58
SWIDTH 333 0
DWIDTH 4 0
BBX 2 7 1 0
BITMAP
C0
C0
00
00
00
C0
C0
ENDCHAR
STARTCHAR semicolon
ENCODING 59
SWIDTH 333 0
DWIDTH 4 0
BBX 2 9 1 -2
BITMAP
C0
C0
00
00
00
C0
C0
40
80
ENDCHAR
STARTCHAR less
ENCODING 60
SWIDTH 500 0
DWIDTH 6 0
BBX 5 7 0 1
BITMAP
18
30
60
C0
60
30
18
ENDCHAR
STARTCHAR equal
ENCODING 61
SWIDTH 666 0
DWIDTH 8 0
BBX 6 3 1 3
BITMAP
FC
00
FC
ENDCHAR
STARTCHAR greater
ENCODING 62
SWIDTH 500 0
DWIDTH 6 0
BBX 5 7 0 1
BITMAP
C0
60
30
18
30
60
C0
ENDCHAR
STARTCHAR question
ENCODING 63
SWIDTH 666 0
DWIDTH 8 0
BBX 6 9 1 0
BITMAP
78
8C
0C
18
30
30
00
30
30
ENDCHAR
STARTCHAR at
ENCODING 64
SWIDTH 916 0
DWIDTH 11 0
BBX 9 8 1 0
BITMAP
3E00
4100
9C80
A480
A480
9B00
4000
3E00
ENDCHAR
STARTCHAR A
ENCODING 65
SWIDTH 666 0
DWIDTH 8 0
BBX 6 9 1 0
BITMAP
78
CC
CC
CC
FC
CC
CC
CC
CC
ENDCHAR
STARTCHAR B
ENCODING 66
SWIDTH 666 0
DWIDTH 8 0
BBX 6 9 1 0
BITMAP
F8
CC
CC
CC
F8
CC
CC
CC
F8
ENDCHAR
STARTCHAR C
ENCODING 67
SWIDTH 666 0
DWIDTH 8 0
BBX 6 9 1 0
BITMAP
78
C4
C0
C0
C0
C0
C0
C4
78
ENDCHAR
STARTCHAR D
ENCODING 68
SWIDTH 666 0
DWIDTH 8 0
BBX 6 9 1 0
BITMAP
F8
CC
CC
CC
CC
CC
CC
CC
F8
ENDCHAR
STARTCHAR E
ENCODING 69
SWIDTH 583 0
DWIDTH 7 0
BBX 5 9 1 0
BITMAP
F8
C0
C0
C0
F0
C0
C0
C0
F8
ENDCHAR
STARTCHAR F
ENCODING 70
SWIDTH 583 0
DWIDTH 7 0
BBX 5 9 1 0
BITMAP
F8
C0
C0
C0
F0
C0
C0
C0
C0
ENDCHAR
STARTCHAR G
ENCODING 71
SWIDTH 666 0
DWIDTH 8 0
BBX 6 9 1 0
BITMAP
78
C4
C0
C0
DC
CC
CC
CC
78
ENDCHAR
STARTCHAR H
ENCODING 72
SWIDTH 666 0
DWIDTH 8 0
BBX 6 9 1 0
BITMAP
CC
CC
CC
CC
FC
CC
CC
CC
CC
ENDCHAR
STARTCHAR I
ENCODING 73
SWIDTH 500 0
DWIDTH 6 0
BBX 2 9 2 0
BITMAP
C0
C0
C0
C0
C0
C0
C0
C0
C0
ENDCHAR
STARTCHAR J
ENCODING 74
SWIDTH 583 0
DWIDTH 7 0
BBX 6 9 0 0
BITMAP
0C
0C
0C
0C
0C
CC
CC
CC
78
ENDCHAR
STARTCHAR K
ENCODING 75
SWIDTH 750 0
DWIDTH 9 0
BBX 7 9 1 0
BITMAP
C6
CC
D8
F0
E0
F0
D8
CC
C6
ENDCHAR
STARTCHAR L
ENCODING 76
SWIDTH 583 0
DWIDTH 7 0
BBX 5 9 1 0
BITMAP
C0
C0
C0
C0
C0
C0
C0
C0
F8
ENDCHAR
STARTCHAR M
ENCODING 77
SWIDTH 1000 0
DWIDTH 12 0
BBX 10 9 1 0
BITMAP
8040
C0C0
E1C0
F3C0
BEC0
9CC0
88C0
80C0
80C0
ENDCHAR
STARTCHAR N
ENCODING 78
SWIDTH 750 0
DWIDTH 9 0
BBX 7 9 1 0
BITMAP
82
C2
E2
F2
BA
9E
8E
86
82
ENDCHAR
STARTCHAR O
ENCODING 79
SWIDTH 666 0
DWIDTH 8 0
BBX 6 9 1 0
BITMAP
78
CC
CC
CC
CC
CC
CC
CC
78
ENDCHAR
STARTCHAR P
ENCODING 80
SWIDTH 666 0
DWIDTH 8 0
BBX 6 9 1 0
BITMAP
F8
CC
CC
CC
F8
C0
C0
C0
C0
ENDCHAR
STARTCHAR Q
ENCODING 81
SWIDTH 666 0
DWIDTH 8 0
BBX 6 10 1 -1
BITMAP
78
CC
CC
CC
CC
CC
CC
CC
78
0C
ENDCHAR
STARTCHAR R
ENCODING 82
SWIDTH 666 0
DWIDTH 8 0
BBX 6 9 1 0
BITMAP
F8
CC
CC
CC
F8
CC
CC
CC
CC
ENDCHAR
STARTCHAR S
ENCODING 83
SWIDTH 583 0
DWIDTH 7 0
BBX 5 9 1 0
BITMAP
70
C8
C0
E0
70
38
18
98
70
ENDCHAR
STARTCHAR T
ENCODING 84
SWIDTH 500 0
DWIDTH 6 0
BBX 6 9 0 0
BITMAP
FC
30
30
30
30
30
30
30
30
ENDCHAR
STARTCHAR U
ENCODING 85
SWIDTH 666 0
DWIDTH 8 0
BBX 6 9 1 0
BITMAP
CC
CC
CC
CC
CC
CC
CC
CC
78
ENDCHAR
STARTCHAR V
ENCODING 86
SWIDTH 666 0
DWIDTH 8 0
BBX 6 9 1 0
BITMAP
CC
CC
CC
CC
CC
CC
CC
C8
F0
ENDCHAR
STARTCHAR W
ENCODING 87
SWIDTH 1000 0
DWIDTH 12 0
BBX 10 9 1 0
BITMAP
CCC0
CCC0
CCC0
CCC0
CCC0
CCC0
CCC0
CC80
FF00
ENDCHAR
STARTCHAR X
ENCODING 88
SWIDTH 666 0
DWIDTH 8 0
BBX 6 9 1 0
BITMAP
CC
CC
CC
CC
78
CC
CC
CC
CC
ENDCHAR
STARTCHAR Y
ENCODING 89
SWIDTH 666 0
DWIDTH 8 0
BBX 6 9 1 0
BITMAP
CC
CC
CC
CC
78
30
30
30
30
ENDCHAR
STARTCHAR Z
ENCODING 90
SWIDTH 666 0
DWIDTH 8 0
BBX 6 9 1 0
BITMAP
FC
0C
0C
18
30
60
C0
C0
FC
ENDCHAR
STARTCHAR bracketleft
ENCODING 91
SWIDTH 416 0
DWIDTH 5 0
BBX 3 11 1 -1
BITMAP
E0
C0
C0
C0
C0
C0
C0
C0
C0
C0
E0
ENDCHAR
STARTCHAR backslash
ENCODING 92
SWIDTH 583 0
DWIDTH 7 0
BBX 5 10 1 0
BITMAP
80
80
40
40
20
20
10
10
08
08
ENDCHAR
STARTCHAR bracketright
ENCODING 93
SWIDTH 416 0
DWIDTH 5 0
BBX 3 11 1 -1
BITMAP
E0
60
60
60
60
60
60
60
60
60
E0
ENDCHAR
STARTCHAR asciicircum
ENCODING 94
SWIDTH 666 0
DWIDTH 8 0
BBX 5 3 2 6
BITMAP
20
50
88
ENDCHAR
STARTCHAR underscore
ENCODING 95
SWIDTH 666 0
DWIDTH 8 0
BBX 8 1 0 0
BITMAP
FF
ENDCHAR
STARTCHAR grave
ENCODING 96
SWIDTH 500 0
DWIDTH 6 0
BBX 3 3 1 7
BITMAP
80
40
20
ENDCHAR
STARTCHAR a
ENCODING 97
SWIDTH 666 0
DWIDTH 8 0
BBX 6 7 1 0
BITMAP
78
8C
7C
CC
CC
CC
7C
ENDCHAR
STARTCHAR b
ENCODING 98
SWIDTH 666 0
DWIDTH 8 0
BBX 6 9 1 0
BITMAP
C0
C0
F8
CC
CC
CC
CC
CC
F8
ENDCHAR
STARTCHAR c
ENCODING 99
SWIDTH 583 0
DWIDTH 7 0
BBX 5 7 1 0
BITMAP
70
C8
C0
C0
C0
C8
70
ENDCHAR
STARTCHAR d
ENCODING 100
SWIDTH 666 0
DWIDTH 8 0
BBX 6 9 1 0
BITMAP
0C
0C
7C
CC
CC
CC
CC
CC
7C
ENDCHAR
STARTCHAR e
ENCODING 101
SWIDTH 666 0
DWIDTH 8 0
BBX 6 7 1 0
BITMAP
78
CC
CC
FC
C0
C4
78
ENDCHAR
STARTCHAR f
ENCODING 102
SWIDTH 500 0
DWIDTH 6 0
BBX 5 9 1 0
BITMAP
38
60
F0
60
60
60
60
60
60
ENDCHAR
STARTCHAR g
ENCODING 103
SWIDTH 666 0
DWIDTH 8 0
BBX 6 10 1 -3
BITMAP
7C
CC
CC
CC
CC
CC
7C
0C
8C
78
ENDCHAR
STARTCHAR h
ENCODING 104
SWIDTH 666 0
DWIDTH 8 0
BBX 6 9 1 0
BITMAP
C0
C0
F8
CC
CC
CC
CC
CC
CC
ENDCHAR
STARTCHAR i
ENCODING 105
SWIDTH 333 0
DWIDTH 4 0
BBX 2 9 1 0
BITMAP
C0
00
C0
C0
C0
C0
C0
C0
C0
ENDCHAR
STARTCHAR j
ENCODING 106
SWIDTH 500 0
DWIDTH 6 0
BBX 5 12 0 -3
BITMAP
18
00
18
18
18
18
18
18
18
18
98
70
ENDCHAR
STARTCHAR k
ENCODING 107
SWIDTH 666 0
DWIDTH 8 0
BBX 6 9 1 0
BITMAP
C0
C0
CC
D8
F0
E0
F0
D8
CC
ENDCHAR
STARTCHAR l
ENCODING 108
SWIDTH 333 0
DWIDTH 4 0
BBX 2 9 1 0
BITMAP
C0
C0
C0
C0
C0
C0
C0
C0
C0
ENDCHAR
STARTCHAR m
ENCODING 109
SWIDTH 1000 0
DWIDTH 12 0
BBX 10 7 1 0
BITMAP
FF80
CCC0
CCC0
CCC0
CCC0
CCC0
CCC0
ENDCHAR
STARTCHAR n
ENCODING 110
SWIDTH 666 0
DWIDTH 8 0
BBX 6 7 1 0
BITMAP
F8
CC
CC
CC
CC
CC
CC
ENDCHAR
STARTCHAR o
ENCODING 111
SWIDTH 666 0
DWIDTH 8 0
BBX 6 7 1 0
BITMAP
78
CC
CC
CC
CC
CC
78
ENDCHAR
STARTCHAR p
ENCODING 112
SWIDTH 666 0
DWIDTH 8 0
BBX 6 9 1 -2
BITMAP
F8
CC
CC
CC
CC
CC
F8
C0
C0
ENDCHAR
STARTCHAR q
ENCODING 113
SWIDTH 666 0
DWIDTH 8 0
BBX 6 9 1 -2
BITMAP
7C
CC
CC
CC
CC
CC
7C
0C
0C
ENDCHAR
STARTCHAR r
ENCODING 114
SWIDTH 500 0
DWIDTH 6 0
BBX 5 7 1 0
BITMAP
D8
E0
C0
C0
C0
C0
C0
ENDCHAR
STARTCHAR s
ENCODING 115
SWIDTH 583 0
DWIDTH 7 0
BBX 5 7 1 0
BITMAP
70
C8
E0
70
38
98
70
ENDCHAR
STARTCHAR t
ENCODING 116
SWIDTH 500 0
DWIDTH 6 0
BBX 4 9 1 0
BITMAP
60
60
F0
60
60
60
60
60
30
ENDCHAR
STARTCHAR u
ENCODING 117
SWIDTH 666 0
DWIDTH 8 0
BBX 6 7 1 0
BITMAP
CC
CC
CC
CC
CC
CC
7C
ENDCHAR
STARTCHAR v
ENCODING 118
SWIDTH 666 0
DWIDTH 8 0
BBX 6 7 1 0
BITMAP
CC
CC
CC
CC
CC
C8
F0
ENDCHAR
STARTCHAR w
ENCODING 119
SWIDTH 1000 0
DWIDTH 12 0
BBX 10 7 1 0
BITMAP
CCC0
CCC0
CCC0
CCC0
CCC0
CC80
FF00
ENDCHAR
STARTCHAR x
ENCODING 120
SWIDTH 666 0
DWIDTH 8 0
BBX 6 7 1 0
BITMAP
CC
CC
CC
78
CC
CC
CC
ENDCHAR
STARTCHAR y
ENCODING 121
SWIDTH 666 0
DWIDTH 8 0
BBX 6 10 1 -3
BITMAP
CC
CC
CC
CC
CC
CC
7C
0C
8C
78
ENDCHAR
STARTCHAR z
ENCODING 122
SWIDTH 666 0
DWIDTH 8 0
BBX 6 7 1 0
BITMAP
FC
0C
18
30
60
C0
FC
ENDCHAR
STARTCHAR braceleft
ENCODING 123
SWIDTH 416 0
DWIDTH 5 0
BBX 3 11 1 -1
BITMAP
20
40
40
40
40
80
40
40
40
40
20
ENDCHAR
STARTCHAR bar
ENCODING 124
SWIDTH 416 0
DWIDTH 5 0
BBX 1 11 2 -1
BITMAP
80
80
80
80
80
80
80
80
80
80
80
ENDCHAR
STARTCHAR braceright
ENCODING 125
SWIDTH 416 0
DWIDTH 5 0
BBX 3 11 1 -1
BITMAP
80
40
40
40
40
20
40
40
40
40
80
ENDCHAR
STARTCHAR asciitilde
ENCODING 126
SWIDTH 666 0
DWIDTH 8 0
BBX 6 2 1 5
BITMAP
64
98
ENDCHAR
STARTCHAR char007f
ENCODING 127
SWIDTH 666 0
DWIDTH 8 0
BBX 0 0 8 -3
BITMAP
ENDCHAR
STARTCHAR nbspace
ENCODING 160
SWIDTH 666 0
DWIDTH 8 0
BBX 0 0 8 -3
BITMAP
ENDCHAR
STARTCHAR exclamdown
ENCODING 161
SWIDTH 500 0
DWIDTH 6 0
BBX 2 9 2 0
BITMAP
C0
C0
00
C0
C0
C0
C0
C0
C0
ENDCHAR
STARTCHAR cent
ENCODING 162
SWIDTH 583 0
DWIDTH 7 0
BBX 5 8 1 2
BITMAP
20
70
A8
A0
A0
A8
70
20
ENDCHAR
STARTCHAR sterling
ENCODING 163
SWIDTH 750 0
DWIDTH 9 0
BBX 7 9 1 0
BITMAP
38
64
60
60
F0
60
60
62
FC
ENDCHAR
STARTCHAR yen
ENCODING 165
SWIDTH 833 0
DWIDTH 10 0
BBX 8 9 1 0
BITMAP
C3
66
FF
18
FF
18
18
18
18
ENDCHAR
STARTCHAR section
ENCODING 167
SWIDTH 583 0
DWIDTH 7 0
BBX 5 12 1 -2
BITMAP
70
88
C0
60
B0
98
C8
68
30
18
88
70
ENDCHAR
STARTCHAR dieresis
ENCODING 168
SWIDTH 500 0
DWIDTH 6 0
BBX 4 1 1 8
BITMAP
90
ENDCHAR
STARTCHAR copyright
ENCODING 169
SWIDTH 833 0
DWIDTH 10 0
BBX 8 9 1 0
BITMAP
3C
42
99
A5
A1
A5
99
42
3C
ENDCHAR
STARTCHAR ordfeminine
ENCODING 170
SWIDTH 583 0
DWIDTH 7 0
BBX 5 8 1 1
BITMAP
70
98
78
D8
D8
78
00
F8
ENDCHAR
STARTCHAR guillemotleft
ENCODING 171
SWIDTH 750 0
DWIDTH 9 0
BBX 7 7 1 0
BITMAP
12
24
48
90
48
24
12
ENDCHAR
STARTCHAR logicalnot
ENCODING 172
SWIDTH 583 0
DWIDTH 7 0
BBX 5 3 1 2
BITMAP
F8
08
08
ENDCHAR
STARTCHAR registered
ENCODING 174
SWIDTH 833 0
DWIDTH 10 0
BBX 8 9 1 0
BITMAP
3C
42
B9
A5
B9
A5
A5
42
3C
ENDCHAR
STARTCHAR degree
ENCODING 176
SWIDTH 500 0
DWIDTH 6 0
BBX 4 4 1 5
BITMAP
60
90
90
60
ENDCHAR
STARTCHAR plusminus
ENCODING 177
SWIDTH 583 0
DWIDTH 7 0
BBX 5 7 1 0
BITMAP
20
20
F8
20
20
00
F8
ENDCHAR
STARTCHAR supertwo
ENCODING 178
SWIDTH 500 0
DWIDTH 6 0
BBX 4 6 1 3
BITMAP
60
B0
30
60
C0
F0
ENDCHAR
STARTCHAR superthree
ENCODING 179
SWIDTH 500 0
DWIDTH 6 0
BBX 4 6 1 3
BITMAP
F0
30
60
30
B0
60
ENDCHAR
STARTCHAR acute
ENCODING 180
SWIDTH 416 0
DWIDTH 5 0
BBX 3 3 1 6
BITMAP
20
40
80
ENDCHAR
STARTCHAR micro
ENCODING 181
SWIDTH 833 0
DWIDTH 10 0
BBX 8 9 1 -2
BITMAP
66
66
66
66
66
66
7D
40
80
ENDCHAR
STARTCHAR paragraph
ENCODING 182
SWIDTH 750 0
DWIDTH 9 0
BBX 7 9 1 0
BITMAP
7E
CA
CA
CA
7A
0A
0A
0A
0A
ENDCHAR
STARTCHAR ordmasculine
ENCODING 186
SWIDTH 583 0
DWIDTH 7 0
BBX 5 8 1 1
BITMAP
70
D8
D8
D8
D8
70
00
F8
ENDCHAR
STARTCHAR guillemotright
ENCODING 187
SWIDTH 750 0
DWIDTH 9 0
BBX 7 7 1 0
BITMAP
90
48
24
12
24
48
90
ENDCHAR
STARTCHAR onequarter
ENCODING 188
SWIDTH 1000 0
DWIDTH 12 0
BBX 10 9 1 0
BITMAP
6200
E200
6400
6580
6B80
6D80
17C0
1180
0180
ENDCHAR
STARTCHAR onehalf
ENCODING 189
SWIDTH 1000 0
DWIDTH 12 0
BBX 10 9 1 0
BITMAP
6200
E200
6400
6580
6AC0
68C0
1180
1300
03C0
ENDCHAR
STARTCHAR threequarters
ENCODING 190
SWIDTH 1000 0
DWIDTH 12 0
BBX 10 9 1 0
BITMAP
F200
3200
6400
3580
BB80
6D80
17C0
1180
0180
ENDCHAR
STARTCHAR questiondown
ENCODING 191
SWIDTH 666 0
DWIDTH 8 0
BBX 6 9 1 0
BITMAP
30
30
00
30
30
60
C0
C4
78
ENDCHAR
STARTCHAR Agrave
ENCODING 192
SWIDTH 666 0
DWIDTH 8 0
BBX 6 12 1 0
BITMAP
20
10
00
78
CC
CC
CC
FC
CC
CC
CC
CC
ENDCHAR
STARTCHAR Atilde
ENCODING 195
SWIDTH 666 0
DWIDTH 8 0
BBX 6 12 1 0
BITMAP
64
98
00
78
CC
CC
CC
FC
CC
CC
CC
CC
ENDCHAR
STARTCHAR Adieresis
ENCODING 196
SWIDTH 666 0
DWIDTH 8 0
BBX 6 11 1 0
BITMAP
48
00
78
CC
CC
CC
FC
CC
CC
CC
CC
ENDCHAR
STARTCHAR Aring
ENCODING 197
SWIDTH 666 0
DWIDTH 8 0
BBX 6 12 1 0
BITMAP
30
48
48
78
CC
CC
CC
FC
CC
CC
CC
CC
ENDCHAR
STARTCHAR AE
ENCODING 198
SWIDTH 916 0
DWIDTH 11 0
BBX 9 9 1 0
BITMAP
7F80
CC00
CC00
CC00
FF00
CC00
CC00
CC00
CF80
ENDCHAR
STARTCHAR Ccedilla
ENCODING 199
SWIDTH 666 0
DWIDTH 8 0
BBX 6 12 1 -3
BITMAP
78
C4
C0
C0
C0
C0
C0
C4
78
30
10
20
ENDCHAR
STARTCHAR Eacute
ENCODING 201
SWIDTH 583 0
DWIDTH 7 0
BBX 5 12 1 0
BITMAP
10
20
00
F8
C0
C0
C0
F0
C0
C0
C0
F8
ENDCHAR
STARTCHAR Ntilde
ENCODING 209
SWIDTH 750 0
DWIDTH 9 0
BBX 7 12 1 0
BITMAP
64
98
00
82
C2
E2
F2
BA
9E
8E
86
82
ENDCHAR
STARTCHAR Otilde
ENCODING 213
SWIDTH 666 0
DWIDTH 8 0
BBX 6 12 1 0
BITMAP
64
98
00
78
CC
CC
CC
CC
CC
CC
CC
78
ENDCHAR
STARTCHAR Odieresis
ENCODING 214
SWIDTH 666 0
DWIDTH 8 0
BBX 6 11 1 0
BITMAP
48
00
78
CC
CC
CC
CC
CC
CC
CC
78
ENDCHAR
STARTCHAR Oslash
ENCODING 216
SWIDTH 750 0
DWIDTH 9 0
BBX 9 9 0 0
BITMAP
1E80
3300
3300
3700
3B00
3300
3300
7300
9E00
ENDCHAR
STARTCHAR Udieresis
ENCODING 220
SWIDTH 666 0
DWIDTH 8 0
BBX 6 11 1 0
BITMAP
48
00
CC
CC
CC
CC
CC
CC
CC
CC
78
ENDCHAR
STARTCHAR germandbls
ENCODING 223
SWIDTH 750 0
DWIDTH 9 0
BBX 7 9 1 0
BITMAP
3C
66
66
6C
66
66
66
66
EC
ENDCHAR
STARTCHAR agrave
ENCODING 224
SWIDTH 666 0
DWIDTH 8 0
BBX 6 10 1 0
BITMAP
20
10
00
78
8C
7C
CC
CC
CC
7C
ENDCHAR
STARTCHAR aacute
ENCODING 225
SWIDTH 666 0
DWIDTH 8 0
BBX 6 10 1 0
BITMAP
10
20
00
78
8C
7C
CC
CC
CC
7C
ENDCHAR
STARTCHAR acircumflex
ENCODING 226
SWIDTH 666 0
DWIDTH 8 0
BBX 6 10 1 0
BITMAP
30
48
00
78
8C
7C
CC
CC
CC
7C
ENDCHAR
STARTCHAR atilde
ENCODING 227
SWIDTH 666 0
DWIDTH 8 0
BBX 6 10 1 0
BITMAP
64
98
00
78
8C
7C
CC
CC
CC
7C
ENDCHAR
STARTCHAR adieresis
ENCODING 228
SWIDTH 666 0
DWIDTH 8 0
BBX 6 9 1 0
BITMAP
48
00
78
8C
7C
CC
CC
CC
7C
ENDCHAR
STARTCHAR aring
ENCODING 229
SWIDTH 666 0
DWIDTH 8 0
BBX 6 12 1 0
BITMAP
30
48
48
30
00
78
8C
7C
CC
CC
CC
7C
ENDCHAR
STARTCHAR ae
ENCODING 230
SWIDTH 1000 0
DWIDTH 12 0
BBX 10 7 1 0
BITMAP
7F80
8CC0
7CC0
CFC0
CC00
CC40
7F80
ENDCHAR
STARTCHAR ccedilla
ENCODING 231
SWIDTH 666 0
DWIDTH 8 0
BBX 6 10 1 -3
BITMAP
78
C4
C0
C0
C0
C4
78
30
10
20
ENDCHAR
STARTCHAR egrave
ENCODING 232
SWIDTH 666 0
DWIDTH 8 0
BBX 6 10 1 0
BITMAP
20
10
00
78
CC
CC
FC
C0
C4
78
ENDCHAR
STARTCHAR eacute
ENCODING 233
SWIDTH 666 0
DWIDTH 8 0
BBX 6 10 1 0
BITMAP
10
20
00
78
CC
CC
FC
C0
C4
78
ENDCHAR
STARTCHAR ecircumflex
ENCODING 234
SWIDTH 666 0
DWIDTH 8 0
BBX 6 10 1 0
BITMAP
30
48
00
78
CC
CC
FC
C0
C4
78
ENDCHAR
STARTCHAR edieresis
ENCODING 235
SWIDTH 666 0
DWIDTH 8 0
BBX 6 9 1 0
BITMAP
48
00
78
CC
CC
FC
C0
C4
78
ENDCHAR
STARTCHAR igrave
ENCODING 236
SWIDTH 500 0
DWIDTH 6 0
BBX 2 10 2 0
BITMAP
80
40
00
C0
C0
C0
C0
C0
C0
C0
ENDCHAR
STARTCHAR iacute
ENCODING 237
SWIDTH 500 0
DWIDTH 6 0
BBX 2 10 2 0
BITMAP
40
80
00
C0
C0
C0
C0
C0
C0
C0
ENDCHAR
STARTCHAR icircumflex
ENCODING 238
SWIDTH 500 0
DWIDTH 6 0
BBX 4 10 1 0
BITMAP
60
90
00
60
60
60
60
60
60
60
ENDCHAR
STARTCHAR idieresis
ENCODING 239
SWIDTH 500 0
DWIDTH 6 0
BBX 4 9 1 0
BITMAP
90
00
60
60
60
60
60
60
60
ENDCHAR
STARTCHAR ntilde
ENCODING 241
SWIDTH 666 0
DWIDTH 8 0
BBX 6 10 1 0
BITMAP
64
98
00
F8
CC
CC
CC
CC
CC
CC
ENDCHAR
STARTCHAR ograve
ENCODING 242
SWIDTH 666 0
DWIDTH 8 0
BBX 6 10 1 0
BITMAP
20
10
00
78
CC
CC
CC
CC
CC
78
ENDCHAR
STARTCHAR oacute
ENCODING 243
SWIDTH 666 0
DWIDTH 8 0
BBX 6 10 1 0
BITMAP
10
20
00
78
CC
CC
CC
CC
CC
78
ENDCHAR
STARTCHAR ocircumflex
ENCODING 244
SWIDTH 666 0
DWIDTH 8 0
BBX 6 10 1 0
BITMAP
30
48
00
78
CC
CC
CC
CC
CC
78
ENDCHAR
STARTCHAR otilde
ENCODING 245
SWIDTH 666 0
DWIDTH 8 0
BBX 6 10 1 0
BITMAP
64
98
00
78
CC
CC
CC
CC
CC
78
ENDCHAR
STARTCHAR odieresis
ENCODING 246
SWIDTH 666 0
DWIDTH 8 0
BBX 6 9 1 0
BITMAP
48
00
78
CC
CC
CC
CC
CC
78
ENDCHAR
STARTCHAR divide
ENCODING 247
SWIDTH 583 0
DWIDTH 7 0
BBX 5 5 1 2
BITMAP
20
00
F8
00
20
ENDCHAR
STARTCHAR oslash
ENCODING 248
SWIDTH 666 0
DWIDTH 8 0
BBX 8 7 0 0
BITMAP
3D
66
66
6E
76
66
BC
ENDCHAR
STARTCHAR ugrave
ENCODING 249
SWIDTH 666 0
DWIDTH 8 0
BBX 6 10 1 0
BITMAP
20
10
00
CC
CC
CC
CC
CC
CC
7C
ENDCHAR
STARTCHAR uacute
ENCODING 250
SWIDTH 666 0
DWIDTH 8 0
BBX 6 10 1 0
BITMAP
10
20
00
CC
CC
CC
CC
CC
CC
7C
ENDCHAR
STARTCHAR ucircumflex
ENCODING 251
SWIDTH 666 0
DWIDTH 8 0
BBX 6 10 1 0
BITMAP
30
48
00
CC
CC
CC
CC
CC
CC
7C
ENDCHAR
STARTCHAR udieresis
ENCODING 252
SWIDTH 666 0
DWIDTH 8 0
BBX 6 9 1 0
BITMAP
48
00
CC
CC
CC
CC
CC
CC
7C
ENDCHAR
STARTCHAR ydieresis
ENCODING 255
SWIDTH 666 0
DWIDTH 8 0
BBX 6 12 1 -3
BITMAP
48
00
CC
CC
CC
CC
CC
CC
7C
0C
8C
78
ENDCHAR
STARTCHAR OE
ENCODING 338
SWIDTH 916 0
DWIDTH 11 0
BBX 9 9 1 0
BITMAP
7F80
CC00
CC00
CC00
CF00
CC00
CC00
CC00
7F80
ENDCHAR
STARTCHAR oe
ENCODING 339
SWIDTH 1000 0
DWIDTH 12 0
BBX 10 7 1 0
BITMAP
7F80
CCC0
CCC0
CFC0
CC00
CC40
7F80
ENDCHAR
STARTCHAR florin
ENCODING 402
SWIDTH 500 0
DWIDTH 6 0
BBX 4 11 1 -2
BITMAP
30
60
60
F0
60
60
60
60
60
60
C0
ENDCHAR
STARTCHAR Delta
ENCODING 916
SWIDTH 750 0
DWIDTH 9 0
BBX 7 8 1 0
BITMAP
10
10
28
28
44
44
82
FE
ENDCHAR
STARTCHAR Omega
ENCODING 937
SWIDTH 833 0
DWIDTH 10 0
BBX 8 9 1 0
BITMAP
3C
66
C3
C3
C3
42
24
24
66
ENDCHAR
STARTCHAR mu
ENCODING 956
SWIDTH 833 0
DWIDTH 10 0
BBX 8 9 1 -2
BITMAP
66
66
66
66
66
66
7D
40
80
ENDCHAR
STARTCHAR pi
ENCODING 960
SWIDTH 916 0
DWIDTH 11 0
BBX 9 8 1 0
BITMAP
0080
7F00
B300
3300
3300
3300
3300
2200
ENDCHAR
STARTCHAR endash
ENCODING 8211
SWIDTH 500 0
DWIDTH 6 0
BBX 4 1 1 4
BITMAP
F0
ENDCHAR
STARTCHAR emdash
ENCODING 8212
SWIDTH 833 0
DWIDTH 10 0
BBX 8 1 1 4
BITMAP
FF
ENDCHAR
STARTCHAR quoteleft
ENCODING 8216
SWIDTH 333 0
DWIDTH 4 0
BBX 2 4 1 5
BITMAP
40
80
C0
C0
ENDCHAR
STARTCHAR quoteright
ENCODING 8217
SWIDTH 333 0
DWIDTH 4 0
BBX 2 4 1 5
BITMAP
C0
C0
40
80
ENDCHAR
STARTCHAR quotedblleft
ENCODING 8220
SWIDTH 583 0
DWIDTH 7 0
BBX 5 4 1 5
BITMAP
48
90
D8
D8
ENDCHAR
STARTCHAR quotedblright
ENCODING 8221
SWIDTH 583 0
DWIDTH 7 0
BBX 5 4 1 5
BITMAP
D8
D8
48
90
ENDCHAR
STARTCHAR dagger
ENCODING 8224
SWIDTH 416 0
DWIDTH 5 0
BBX 3 5 1 4
BITMAP
40
E0
40
40
40
ENDCHAR
STARTCHAR bullet
ENCODING 8226
SWIDTH 583 0
DWIDTH 7 0
BBX 5 5 1 2
BITMAP
70
F8
F8
F8
70
ENDCHAR
STARTCHAR ellipsis
ENCODING 8230
SWIDTH 1166 0
DWIDTH 14 0
BBX 10 2 2 0
BITMAP
CCC0
CCC0
ENDCHAR
STARTCHAR trademark
ENCODING 8482
SWIDTH 916 0
DWIDTH 11 0
BBX 9 4 1 5
BITMAP
E880
4D80
4A80
4880
ENDCHAR
STARTCHAR oneseventh
ENCODING 8528
SWIDTH 1000 0
DWIDTH 12 0
BBX 10 9 1 0
BITMAP
6200
E200
6400
67C0
6840
6880
1180
1180
0180
ENDCHAR
STARTCHAR oneninth
ENCODING 8529
SWIDTH 1000 0
DWIDTH 12 0
BBX 10 9 1 0
BITMAP
6200
E200
6400
6580
6AC0
6AC0
11C0
10C0
0180
ENDCHAR
STARTCHAR onethird
ENCODING 8531
SWIDTH 1000 0
DWIDTH 12 0
BBX 10 9 1 0
BITMAP
6200
E200
6400
67C0
68C0
6980
10C0
12C0
0180
ENDCHAR
STARTCHAR twothirds
ENCODING 8532
SWIDTH 1000 0
DWIDTH 12 0
BBX 10 9 1 0
BITMAP
6200
B200
3400
67C0
C8C0
F980
10C0
12C0
0180
ENDCHAR
STARTCHAR onefifth
ENCODING 8533
SWIDTH 1000 0
DWIDTH 12 0
BBX 10 9 1 0
BITMAP
6200
E200
6400
6780
6A00
6B80
10C0
10C0
0380
ENDCHAR
STARTCHAR twofifth
ENCODING 8534
SWIDTH 1000 0
DWIDTH 12 0
BBX 10 9 1 0
BITMAP
6200
B200
3400
6780
CA00
FB80
10C0
10C0
0380
ENDCHAR
STARTCHAR threefifth
ENCODING 8535
SWIDTH 1000 0
DWIDTH 12 0
BBX 10 9 1 0
BITMAP
F200
3200
6400
3780
BA00
6B80
10C0
10C0
0380
ENDCHAR
STARTCHAR fourfifth
ENCODING 8536
SWIDTH 1000 0
DWIDTH 12 0
BBX 11 9 0 0
BITMAP
3100
7100
B200
FBC0
3500
35C0
0860
0860
01C0
ENDCHAR
STARTCHAR onesixth
ENCODING 8537
SWIDTH 1000 0
DWIDTH 12 0
BBX 10 9 1 0
BITMAP
6200
E200
6400
6580
6B00
6B80
1340
1340
0180
ENDCHAR
STARTCHAR fivesixth
ENCODING 8538
SWIDTH 1000 0
DWIDTH 12 0
BBX 10 9 1 0
BITMAP
E200
8200
E400
3580
3B00
EB80
1340
1340
0180
ENDCHAR
STARTCHAR oneeighth
ENCODING 8539
SWIDTH 1000 0
DWIDTH 12 0
BBX 10 9 1 0
BITMAP
6200
E200
6400
6580
6B40
6980
1340
1340
0180
ENDCHAR
STARTCHAR threeeighths
ENCODING 8540
SWIDTH 1000 0
DWIDTH 12 0
BBX 10 9 1 0
BITMAP
F200
3200
6400
3580
3B40
E980
1340
1340
0180
ENDCHAR
STARTCHAR fiveeighths
ENCODING 8541
SWIDTH 1000 0
DWIDTH 12 0
BBX 10 9 1 0
BITMAP
E200
8200
E400
3580
3B40
E980
1340
1340
0180
ENDCHAR
STARTCHAR seveneighths
ENCODING 8542
SWIDTH 1000 0
DWIDTH 12 0
BBX 10 9 1 0
BITMAP
F200
1200
3400
6580
6B40
6980
1340
1340
0180
ENDCHAR
STARTCHAR partialdiff
ENCODING 8706
SWIDTH 666 0
DWIDTH 8 0
BBX 6 8 1 0
BITMAP
70
18
3C
6C
CC
CC
C8
70
ENDCHAR
STARTCHAR product
ENCODING 8719
SWIDTH 833 0
DWIDTH 10 0
BBX 8 9 1 0
BITMAP
FF
66
66
66
66
66
66
66
66
ENDCHAR
STARTCHAR summation
ENCODING 8721
SWIDTH 750 0
DWIDTH 9 0
BBX 7 9 1 0
BITMAP
FE
62
30
18
0C
18
30
62
FE
ENDCHAR
STARTCHAR radical
ENCODING 8730
SWIDTH 1000 0
DWIDTH 12 0
BBX 10 10 1 0
BITMAP
01C0
0100
0200
0200
4400
C400
2800
2800
1000
1000
ENDCHAR
STARTCHAR infinity
ENCODING 8734
SWIDTH 1166 0
DWIDTH 14 0
BBX 12 5 1 2
BITMAP
71E0
8B10
8610
8D10
78E0
ENDCHAR
STARTCHAR integral
ENCODING 8747
SWIDTH 500 0
DWIDTH 6 0
BBX 4 11 1 -2
BITMAP
30
60
60
60
60
60
60
60
60
60
C0
ENDCHAR
STARTCHAR approxequal
ENCODING 8776
SWIDTH 833 0
DWIDTH 10 0
BBX 6 5 2 2
BITMAP
04
78
84
78
80
ENDCHAR
STARTCHAR notequal
ENCODING 8800
SWIDTH 750 0
DWIDTH 9 0
BBX 7 5 1 2
BITMAP
08
FE
10
FE
20
ENDCHAR
STARTCHAR lessequal
ENCODING 8804
SWIDTH 500 0
DWIDTH 6 0
BBX 4 7 1 0
BITMAP
20
40
80
40
20
00
F0
ENDCHAR
STARTCHAR greaterequal
ENCODING 8805
SWIDTH 500 0
DWIDTH 6 0
BBX 4 7 1 0
BITMAP
40
20
10
20
40
00
F0
ENDCHAR
STARTCHAR lozenge
ENCODING 9674
SWIDTH 750 0
DWIDTH 9 0
BBX 7 7 1 1
BITMAP
10
28
44
82
44
28
10
ENDCHAR
STARTCHAR apple
ENCODING 63743
SWIDTH 916 0
DWIDTH 11 0
BBX 9 11 1 0
BITMAP
0600
0C00
0800
7700
FF80
FE00
FE00
FF80
FF80
7F00
3600
ENDCHAR
ENDFONT
